<svg width="180" viewBox="0 0 216 48" fill="none" xmlns="http://www.w3.org/2000/svg">
<path d="M197.757 12.8026H201.996V21.9117H202.168C202.34 21.4916 202.55 21.1001 202.798 20.7373C203.046 20.3745 203.342 20.0594 203.686 19.792C204.049 19.5055 204.459 19.2859 204.918 19.1332C205.395 18.9613 205.93 18.8754 206.522 18.8754C207.228 18.8754 207.878 18.9995 208.47 19.2477C209.062 19.4769 209.568 19.8302 209.988 20.3076C210.408 20.785 210.733 21.3675 210.962 22.055C211.21 22.7425 211.334 23.535 211.334 24.4325V34H207.095V25.0054C207.095 23.0957 206.264 22.1409 204.603 22.1409C204.278 22.1409 203.953 22.1886 203.629 22.2841C203.323 22.3605 203.046 22.4942 202.798 22.6852C202.55 22.857 202.349 23.0766 202.197 23.344C202.063 23.6114 201.996 23.9265 201.996 24.2893V34H197.757V12.8026Z" fill="#E0E0E0"/>
<path d="M180.695 19.2191H184.935V21.9117H185.135C185.498 21.0333 186.023 20.3076 186.711 19.7347C187.398 19.1618 188.334 18.8754 189.518 18.8754C190.339 18.8754 191.084 19.0281 191.752 19.3337C192.44 19.6392 193.022 20.1071 193.5 20.7373C193.996 21.3675 194.378 22.1695 194.645 23.1435C194.932 24.1174 195.075 25.2728 195.075 26.6095C195.075 27.9463 194.932 29.1017 194.645 30.0756C194.378 31.0496 193.996 31.8516 193.5 32.4818C193.022 33.112 192.44 33.5799 191.752 33.8854C191.084 34.191 190.339 34.3437 189.518 34.3437C188.334 34.3437 187.398 34.0668 186.711 33.513C186.023 32.9401 185.498 32.2049 185.135 31.3074H184.935V39.729H180.695V19.2191ZM187.685 31.0495C188.639 31.0495 189.375 30.7631 189.89 30.1902C190.406 29.5982 190.664 28.7866 190.664 27.7554V25.4637C190.664 24.4325 190.406 23.6305 189.89 23.0575C189.375 22.4655 188.639 22.1696 187.685 22.1696C186.94 22.1696 186.291 22.351 185.737 22.7138C185.202 23.0766 184.935 23.6495 184.935 24.4325V28.7866C184.935 29.5696 185.202 30.1425 185.737 30.5053C186.291 30.8681 186.94 31.0495 187.685 31.0495Z" fill="#E0E0E0"/>
<path d="M176.066 34C175.187 34 174.481 33.7804 173.946 33.3412C173.411 32.8828 173.096 32.2335 173.001 31.3933H172.858C172.59 32.3672 172.056 33.1025 171.253 33.599C170.47 34.0955 169.506 34.3437 168.36 34.3437C166.928 34.3437 165.773 33.9618 164.894 33.1979C164.035 32.415 163.605 31.3265 163.605 29.9324C163.605 28.3855 164.169 27.2397 165.295 26.495C166.422 25.7502 168.074 25.3778 170.251 25.3778H172.628V24.633C172.628 23.7546 172.418 23.0957 171.998 22.6565C171.597 22.1982 170.91 21.969 169.936 21.969C169.038 21.969 168.313 22.1409 167.759 22.4846C167.205 22.8284 166.728 23.2772 166.326 23.831L164.006 21.7685C164.503 20.9283 165.276 20.2408 166.326 19.7061C167.396 19.1523 168.761 18.8754 170.423 18.8754C172.447 18.8754 174.022 19.3432 175.149 20.279C176.295 21.1956 176.868 22.5897 176.868 24.4612V30.935H178.501V34H176.066ZM169.964 31.5652C170.709 31.5652 171.339 31.3837 171.855 31.0209C172.371 30.6581 172.628 30.1329 172.628 29.4454V27.6694H170.365C168.628 27.6694 167.759 28.2519 167.759 29.4168V29.9897C167.759 30.5053 167.959 30.8968 168.36 31.1641C168.761 31.4315 169.296 31.5652 169.964 31.5652Z" fill="#E0E0E0"/>
<path d="M147.346 30.7058H150.755V22.5133H147.346V19.2191H154.994V23.4013H155.195C155.328 22.8666 155.51 22.351 155.739 21.8545C155.987 21.3388 156.293 20.8901 156.656 20.5081C157.038 20.1071 157.496 19.792 158.031 19.5628C158.565 19.3337 159.195 19.2191 159.921 19.2191H161.325V23.1148H158.174C157.123 23.1148 156.331 23.4299 155.796 24.0601C155.262 24.6712 154.994 25.4255 154.994 26.3231V30.7058H159.864V34H147.346V30.7058Z" fill="#E0E0E0"/>
<path d="M140.11 31.1641H139.852C139.68 31.5843 139.47 31.9853 139.222 32.3672C138.974 32.7492 138.668 33.0929 138.305 33.3985C137.942 33.6849 137.513 33.9141 137.016 34.0859C136.539 34.2578 135.995 34.3437 135.383 34.3437C134.409 34.3437 133.541 34.1146 132.777 33.6563C132.032 33.1979 131.402 32.5295 130.886 31.6511C130.371 30.7726 129.979 29.7032 129.712 28.4428C129.463 27.1825 129.339 25.7597 129.339 24.1747C129.339 20.7755 129.96 18.1783 131.201 16.3832C132.443 14.569 134.362 13.6619 136.959 13.6619C137.99 13.6619 138.897 13.8052 139.68 14.0916C140.463 14.359 141.132 14.7505 141.685 15.2661C142.258 15.7626 142.726 16.3641 143.089 17.0707C143.452 17.7773 143.738 18.5603 143.948 19.4196L139.938 20.3935C139.823 19.9734 139.69 19.5724 139.537 19.1905C139.403 18.7894 139.222 18.4361 138.993 18.1306C138.764 17.825 138.477 17.5863 138.133 17.4145C137.79 17.2235 137.369 17.128 136.873 17.128C135.784 17.128 135.011 17.5768 134.553 18.4743C134.114 19.3719 133.894 20.6323 133.894 22.2555V25.521C133.894 27.1443 134.133 28.4428 134.61 29.4168C135.107 30.3907 135.975 30.8777 137.217 30.8777C138.191 30.8777 138.916 30.5912 139.394 30.0183C139.871 29.4454 140.11 28.7102 140.11 27.8126V26.3517H136.701V23.3154H143.948V34H140.11V31.1641Z" fill="#E0E0E0"/>
<path d="M120.442 34.3437C117.959 34.3437 116.078 33.6563 114.799 32.2813C113.519 30.9063 112.88 29.0348 112.88 26.6668C112.88 25.4637 113.042 24.3848 113.367 23.4299C113.71 22.456 114.188 21.6348 114.799 20.9665C115.429 20.279 116.183 19.7634 117.062 19.4196C117.959 19.0568 118.962 18.8754 120.069 18.8754C121.177 18.8754 122.17 19.0568 123.049 19.4196C123.927 19.7634 124.672 20.2599 125.283 20.9092C125.894 21.5585 126.362 22.351 126.687 23.2867C127.03 24.2034 127.202 25.2346 127.202 26.3804V27.6408H117.09V27.8986C117.09 28.8534 117.386 29.6268 117.978 30.2188C118.57 30.7917 119.439 31.0782 120.585 31.0782C121.464 31.0782 122.218 30.9159 122.848 30.5912C123.478 30.2475 124.022 29.7987 124.481 29.2449L126.772 31.737C126.2 32.4436 125.397 33.0547 124.366 33.5703C123.335 34.0859 122.027 34.3437 120.442 34.3437ZM120.098 21.9117C119.181 21.9117 118.446 22.1982 117.892 22.7711C117.358 23.3249 117.09 24.0792 117.09 25.0341V25.2632H123.049V25.0341C123.049 24.0601 122.781 23.2963 122.246 22.7425C121.731 22.1886 121.015 21.9117 120.098 21.9117Z" fill="#E0E0E0"/>
<path d="M102.979 34.3437C101.337 34.3437 99.9049 34.0955 98.6827 33.599C97.4796 33.1025 96.5725 32.4245 95.9614 31.5652L98.339 29.3595C98.9119 29.9897 99.5803 30.4862 100.344 30.849C101.127 31.1928 102.015 31.3646 103.008 31.3646C103.848 31.3646 104.507 31.2405 104.985 30.9923C105.462 30.7249 105.701 30.3239 105.701 29.7892C105.701 29.369 105.538 29.0826 105.214 28.9298C104.889 28.7579 104.44 28.6243 103.867 28.5288L101.49 28.1564C100.822 28.0609 100.201 27.9177 99.628 27.7267C99.0551 27.5166 98.5586 27.2397 98.1385 26.896C97.7183 26.5523 97.3841 26.1321 97.1359 25.6356C96.8876 25.1391 96.7635 24.5376 96.7635 23.831C96.7635 22.2841 97.3555 21.0715 98.5395 20.193C99.7235 19.3146 101.385 18.8754 103.524 18.8754C104.975 18.8754 106.207 19.0759 107.219 19.4769C108.25 19.8588 109.071 20.4126 109.682 21.1383L107.563 23.5445C107.123 23.0671 106.56 22.6661 105.873 22.3414C105.185 22.0168 104.354 21.8545 103.381 21.8545C101.738 21.8545 100.917 22.351 100.917 23.344C100.917 23.7832 101.079 24.0888 101.404 24.2606C101.729 24.4134 102.177 24.5376 102.75 24.633L105.099 25.0054C105.768 25.1009 106.388 25.2537 106.961 25.4637C107.534 25.6547 108.031 25.9221 108.451 26.2658C108.89 26.6096 109.234 27.0297 109.482 27.5262C109.73 28.0227 109.854 28.6243 109.854 29.3308C109.854 30.8777 109.253 32.0999 108.05 32.9974C106.866 33.895 105.176 34.3437 102.979 34.3437Z" fill="#E0E0E0"/>
<path d="M77.8689 19.2191H81.3922L82.4521 31.1928H82.7386L84.4859 19.2191H88.2098L89.9285 31.1928H90.2149L91.3035 19.2191H94.6549L92.9076 34H87.866L86.4051 23.8023H86.1187L84.6578 34H79.6162L77.8689 19.2191Z" fill="#E0E0E0"/>
<path d="M69.3725 34.3437C68.2266 34.3437 67.1954 34.1719 66.2788 33.8281C65.3621 33.4653 64.5792 32.9497 63.9299 32.2813C63.2997 31.6129 62.8127 30.8013 62.469 29.8465C62.1252 28.8916 61.9534 27.8126 61.9534 26.6095C61.9534 25.4065 62.1252 24.3275 62.469 23.3726C62.8127 22.4178 63.2997 21.6062 63.9299 20.9378C64.5792 20.2694 65.3621 19.7634 66.2788 19.4196C67.1954 19.0568 68.2266 18.8754 69.3725 18.8754C70.5183 18.8754 71.5495 19.0568 72.4661 19.4196C73.3828 19.7634 74.1562 20.2694 74.7864 20.9378C75.4357 21.6062 75.9322 22.4178 76.2759 23.3726C76.6197 24.3275 76.7916 25.4065 76.7916 26.6095C76.7916 27.8126 76.6197 28.8916 76.2759 29.8465C75.9322 30.8013 75.4357 31.6129 74.7864 32.2813C74.1562 32.9497 73.3828 33.4653 72.4661 33.8281C71.5495 34.1719 70.5183 34.3437 69.3725 34.3437ZM69.3725 31.1928C70.3273 31.1928 71.0721 30.8968 71.6068 30.3048C72.1415 29.7128 72.4088 28.8725 72.4088 27.784V25.4351C72.4088 24.3466 72.1415 23.5063 71.6068 22.9143C71.0721 22.3223 70.3273 22.0263 69.3725 22.0263C68.4176 22.0263 67.6728 22.3223 67.1381 22.9143C66.6034 23.5063 66.3361 24.3466 66.3361 25.4351V27.784C66.3361 28.8725 66.6034 29.7128 67.1381 30.3048C67.6728 30.8968 68.4176 31.1928 69.3725 31.1928Z" fill="#E0E0E0"/>
<path d="M46.0092 30.7058H49.418V22.5133H46.0092V19.2191H53.6575V23.4013H53.858C53.9916 22.8666 54.1731 22.351 54.4022 21.8545C54.6505 21.3388 54.956 20.8901 55.3189 20.5081C55.7008 20.1071 56.1591 19.792 56.6938 19.5628C57.2285 19.3337 57.8587 19.2191 58.5844 19.2191H59.988V23.1148H56.8371C55.7867 23.1148 54.9942 23.4299 54.4595 24.0601C53.9248 24.6712 53.6575 25.4255 53.6575 26.3231V30.7058H58.5271V34H46.0092V30.7058Z" fill="#E0E0E0"/>
<path d="M29.2057 14.0057H36.2237C38.1907 14.0057 39.6898 14.4831 40.721 15.4379C41.7714 16.3928 42.2965 17.6914 42.2965 19.3337C42.2965 20.4795 42.0101 21.3961 41.4372 22.0836C40.8834 22.752 40.0813 23.239 39.031 23.5445V23.7164C40.2723 24.0219 41.2271 24.5566 41.8955 25.3205C42.583 26.0844 42.9267 27.1443 42.9267 28.5001C42.9267 30.1806 42.392 31.5174 41.3226 32.5105C40.2723 33.5035 38.7923 34 36.8826 34H29.2057V14.0057ZM35.5649 30.9923C36.5961 30.9923 37.3504 30.8204 37.8279 30.4766C38.3053 30.1329 38.544 29.5027 38.544 28.5861V27.7554C38.544 26.8387 38.3053 26.2085 37.8279 25.8648C37.3504 25.521 36.5961 25.3492 35.5649 25.3492H33.3879V30.9923H35.5649ZM35.0206 22.4846C36.0328 22.4846 36.768 22.3223 37.2263 21.9977C37.6846 21.6539 37.9138 21.0428 37.9138 20.1644V19.305C37.9138 18.4266 37.6846 17.825 37.2263 17.5004C36.768 17.1757 36.0328 17.0134 35.0206 17.0134H33.3879V22.4846H35.0206Z" fill="#E0E0E0"/>
<g opacity="0.84">
<path d="M6.4673 13.709L9.28134 24.2112V12.6649C9.50448 12.6128 9.73001 12.567 9.95774 12.5275V24.2123L13.1228 12.4C13.3509 12.4206 13.5772 12.4477 13.8014 12.4809L10.6108 24.3883L16.9529 13.4035C17.1595 13.4965 17.363 13.5951 17.5632 13.6992L11.1975 24.7249L20.2854 15.6371C20.4492 15.792 20.6087 15.9515 20.7636 16.1154L11.6744 25.2046L22.7015 18.8381C22.8055 19.0383 22.9041 19.2418 22.997 19.4485L12.015 25.789L23.9192 22.5992C23.9524 22.8235 23.9794 23.0497 24 23.2778L12.1879 26.4429L23.8723 26.4429C23.8329 26.6706 23.787 26.8961 23.7349 27.1193L12.1861 27.1193L22.6903 29.9339C22.5824 30.1404 22.4687 30.3435 22.3494 30.5428L12.014 27.7734L20.6464 32.7574C20.483 32.9254 20.3147 33.0887 20.1418 33.247L11.6766 28.3596L18.0821 34.7651C17.8794 34.8835 17.6731 34.9961 17.4631 35.1028L11.1976 28.8372L15.3028 35.9477C15.0781 36.0113 14.8506 36.0684 14.6207 36.119L10.6112 29.1744L12.5444 36.389C12.3721 36.3963 12.1988 36.4 12.0247 36.4C11.9653 36.4 11.9059 36.3996 11.8467 36.3987L9.95773 29.3489V36.223C9.73001 36.1836 9.50448 36.1377 9.28134 36.0856V29.35L7.61577 35.566C7.40333 35.4822 7.19385 35.3926 6.98753 35.2973L8.62775 29.1759L5.54871 34.5089C5.35809 34.3869 5.17114 34.2596 4.98807 34.1272L8.0429 28.8361L3.76482 33.1142C3.60096 32.9593 3.44146 32.7998 3.28652 32.6359L7.56325 28.3592L2.27365 31.4131C2.14129 31.2301 2.01396 31.0431 1.89187 30.8525L7.22743 27.772L1.103 29.4131C1.00767 29.2068 0.918017 28.9973 0.834239 28.7848L7.05021 27.1193L0.314506 27.1193C0.262422 26.8961 0.216552 26.6706 0.177088 26.4429L7.04838 26.4429L0.0013105 24.5546C0.000437843 24.4949 0 24.4352 0 24.3753C0 24.2016 0.00368092 24.0288 0.010969 23.857L7.22645 25.7903L0.280734 21.7802C0.331309 21.5503 0.388463 21.3229 0.45199 21.0981L7.56538 25.205L1.29721 18.9368C1.40385 18.7269 1.51647 18.5205 1.63485 18.3179L8.04298 24.726L3.15362 16.2574C3.31194 16.0845 3.47525 15.9162 3.64332 15.7528L8.62816 24.3868L5.85837 14.0498C6.05768 13.9305 6.26073 13.8169 6.4673 13.709Z" fill="white"/>
</g>
</svg>
